<?xml version="1.0" encoding="utf-8"?>
<!-- Generator: Adobe Illustrator 23.0.0, SVG Export Plug-In . SVG Version: 6.00 Build 0)  -->
<svg version="1.1" id="Layer_1" xmlns="http://www.w3.org/2000/svg" xmlns:xlink="http://www.w3.org/1999/xlink" x="0px" y="0px"
	 viewBox="0 0 377.3 206.8" style="enable-background:new 0 0 377.3 206.8;" xml:space="preserve">
<style type="text/css">
	.st0{clip-path:url(#SVGID_2_);fill:url(#SVGID_3_);}
	.st1{clip-path:url(#SVGID_5_);fill:url(#SVGID_6_);}
	.st2{clip-path:url(#SVGID_8_);fill:url(#SVGID_9_);}
	.st3{clip-path:url(#SVGID_11_);fill:url(#SVGID_12_);}
	.st4{clip-path:url(#SVGID_14_);fill:url(#SVGID_15_);}
	.st5{clip-path:url(#SVGID_17_);fill:url(#SVGID_18_);}
	.st6{fill:#001C71;}
</style>
<g>
	<defs>
		<path id="SVGID_1_" d="M279.3,18.6c-1.7-1.2-3.9-1.3-5.8-0.3l-0.1,0c-2.6,1.5-3.5,4.8-2,7.4c1,1.7,2.8,2.7,4.7,2.7
			c0.9,0,1.8-0.2,2.7-0.7l0.1,0c1.9-1.1,2.9-3.1,2.7-5.2l16.7-9.7l31.2,18v12.8h4.5V28.2L298.2,7.6L279.3,18.6z"/>
	</defs>
	<clipPath id="SVGID_2_">
		<use xlink:href="#SVGID_1_"  style="overflow:visible;"/>
	</clipPath>
	
		<linearGradient id="SVGID_3_" gradientUnits="userSpaceOnUse" x1="-231.784" y1="400.9591" x2="-230.784" y2="400.9591" gradientTransform="matrix(92.5047 82.5119 82.5119 -92.5047 -11360.9824 56223.1836)">
		<stop  offset="0" style="stop-color:#11CEC8"/>
		<stop  offset="8.475007e-02" style="stop-color:#0EC0C7"/>
		<stop  offset="0.5039" style="stop-color:#0080C0"/>
		<stop  offset="0.9951" style="stop-color:#61269D"/>
		<stop  offset="1" style="stop-color:#61269D"/>
	</linearGradient>
	<polygon class="st0" points="298.3,-24.2 351.9,23.6 305.6,75.5 252,27.7 	"/>
</g>
<g>
	<defs>
		<path id="SVGID_4_" d="M279.9,59.2V105v1.3l20.1,11.3c-0.2,2,0.8,4.1,2.7,5.1l0.1,0c0.8,0.5,1.7,0.7,2.6,0.7c1.9,0,3.7-1,4.7-2.7
			c1.5-2.6,0.5-5.9-2.1-7.3l-0.1,0c-1.9-1.1-4.1-0.9-5.8,0.3l-17.8-10V59.2H279.9z"/>
	</defs>
	<clipPath id="SVGID_5_">
		<use xlink:href="#SVGID_4_"  style="overflow:visible;"/>
	</clipPath>
	
		<linearGradient id="SVGID_6_" gradientUnits="userSpaceOnUse" x1="-231.784" y1="400.9753" x2="-230.784" y2="400.9753" gradientTransform="matrix(92.5047 82.5119 82.5119 -92.5047 -11397.7207 56264.3711)">
		<stop  offset="0" style="stop-color:#11CEC8"/>
		<stop  offset="8.475007e-02" style="stop-color:#0EC0C7"/>
		<stop  offset="0.5039" style="stop-color:#0080C0"/>
		<stop  offset="0.9951" style="stop-color:#61269D"/>
		<stop  offset="1" style="stop-color:#61269D"/>
	</linearGradient>
	<polygon class="st1" points="293.9,43.4 343.5,87.7 297.5,139.2 247.9,95 	"/>
</g>
<g>
	<defs>
		<path id="SVGID_7_" d="M296.2,93l40.9,23.6l21.9-13c1,0.7,2.1,1.1,3.3,1.1c1,0,2-0.3,2.9-0.8l0,0c2.7-1.6,3.6-5,2-7.7
			c-1.6-2.7-5-3.6-7.7-2l0,0c-2,1.2-3,3.4-2.7,5.5L337,111.4l-38.6-22.3L296.2,93z"/>
	</defs>
	<clipPath id="SVGID_8_">
		<use xlink:href="#SVGID_7_"  style="overflow:visible;"/>
	</clipPath>
	
		<linearGradient id="SVGID_9_" gradientUnits="userSpaceOnUse" x1="-231.784" y1="400.9073" x2="-230.784" y2="400.9073" gradientTransform="matrix(92.5047 82.5119 82.5119 -92.5047 -11381.5654 56246.2578)">
		<stop  offset="0" style="stop-color:#11CEC8"/>
		<stop  offset="8.475007e-02" style="stop-color:#0EC0C7"/>
		<stop  offset="0.5039" style="stop-color:#0080C0"/>
		<stop  offset="0.9951" style="stop-color:#61269D"/>
		<stop  offset="1" style="stop-color:#61269D"/>
	</linearGradient>
	<polygon class="st2" points="328.3,53.1 382.4,101.3 336.6,152.7 282.5,104.4 	"/>
</g>
<g>
	<defs>
		<path id="SVGID_10_" d="M371.8,35c-3,0-5.4,2.5-5.3,5.4l0,0.1c0,2.2,1.3,4,3.1,4.8l0.3,24.1l-38.6,22.3l2.3,3.9l40.8-23.6
			l-0.3-26.7c1.9-0.9,3.1-2.8,3.1-4.9l0-0.1C377.3,37.4,374.8,35,371.8,35C371.9,35,371.9,35,371.8,35"/>
	</defs>
	<clipPath id="SVGID_11_">
		<use xlink:href="#SVGID_10_"  style="overflow:visible;"/>
	</clipPath>
	
		<linearGradient id="SVGID_12_" gradientUnits="userSpaceOnUse" x1="-231.784" y1="400.957" x2="-230.784" y2="400.957" gradientTransform="matrix(92.5047 82.5119 82.5119 -92.5047 -11357.3281 56219.0859)">
		<stop  offset="0" style="stop-color:#11CEC8"/>
		<stop  offset="8.475007e-02" style="stop-color:#0EC0C7"/>
		<stop  offset="0.5039" style="stop-color:#0080C0"/>
		<stop  offset="0.9951" style="stop-color:#61269D"/>
		<stop  offset="1" style="stop-color:#61269D"/>
	</linearGradient>
	<polygon class="st3" points="351.7,12.2 407.5,61.9 357,118.5 301.2,68.8 	"/>
</g>
<g>
	<defs>
		<path id="SVGID_13_" d="M323.9,2.7c-1.5,2.6-0.6,5.9,2,7.4l0.1,0.1c0.8,0.5,1.8,0.7,2.7,0.7c1.1,0,2.2-0.3,3.1-1l18.7,10.7v39.8
			l-8.7,5.1l-4.2,7.9l-18.6,7.5l-11.4-7.9l-3.5-10.4l-7.5-7.4l-3.2,3.2l6.7,6.6l3.7,10.8L318.3,86l22.4-9.1l4.4-8.2l9.8-5.8v-45
			L334,5.9c0.2-2-0.8-4.1-2.7-5.1l-0.1-0.1c-0.8-0.5-1.8-0.7-2.7-0.7C326.7,0,324.9,1,323.9,2.7"/>
	</defs>
	<clipPath id="SVGID_14_">
		<use xlink:href="#SVGID_13_"  style="overflow:visible;"/>
	</clipPath>
	
		<linearGradient id="SVGID_15_" gradientUnits="userSpaceOnUse" x1="-231.784" y1="400.9497" x2="-230.784" y2="400.9497" gradientTransform="matrix(92.5047 82.5119 82.5119 -92.5047 -11359.0322 56220.9961)">
		<stop  offset="0" style="stop-color:#11CEC8"/>
		<stop  offset="8.475007e-02" style="stop-color:#0EC0C7"/>
		<stop  offset="0.5039" style="stop-color:#0080C0"/>
		<stop  offset="0.9951" style="stop-color:#61269D"/>
		<stop  offset="1" style="stop-color:#61269D"/>
	</linearGradient>
	<polygon class="st4" points="320.6,-30.6 397.6,38.1 327.6,116.6 250.5,47.9 	"/>
</g>
<g>
	<defs>
		<path id="SVGID_16_" d="M260.6,51.4v25.7c-1.8,0.9-3.1,2.7-3.1,4.9v0.1c0,3,2.4,5.4,5.4,5.4c3,0,5.4-2.4,5.4-5.4V82
			c0-2.2-1.3-4-3.1-4.9V54l36.8-21.4l4,2.3l1,10l7.1,7l9.6,3.9l4.5,6.9l4.7,3.4l2.7-3.6l-4-3l-4.8-7.4l-10.1-4.1l-5.3-5.2l-1.1-10.7
			l-8.3-4.7L260.6,51.4z"/>
	</defs>
	<clipPath id="SVGID_17_">
		<use xlink:href="#SVGID_16_"  style="overflow:visible;"/>
	</clipPath>
	
		<linearGradient id="SVGID_18_" gradientUnits="userSpaceOnUse" x1="-231.784" y1="401.0272" x2="-230.784" y2="401.0272" gradientTransform="matrix(92.5047 82.5119 82.5119 -92.5047 -11384.8447 56249.9336)">
		<stop  offset="0" style="stop-color:#11CEC8"/>
		<stop  offset="8.475007e-02" style="stop-color:#0EC0C7"/>
		<stop  offset="0.5039" style="stop-color:#0080C0"/>
		<stop  offset="0.9951" style="stop-color:#61269D"/>
		<stop  offset="1" style="stop-color:#61269D"/>
	</linearGradient>
	<polygon class="st5" points="292.1,-11.3 365.4,54.1 300.9,126.3 227.6,60.9 	"/>
</g>
<path class="st6" d="M10.5,177.1c-0.2-0.4-0.4-0.7-0.6-1c-0.3-0.3-0.5-0.5-0.9-0.7c-0.3-0.2-0.6-0.4-1-0.5c-0.3-0.2-0.7-0.3-1-0.4
	c-0.3-0.1-0.7-0.3-1-0.4c-0.3-0.1-0.6-0.3-0.8-0.4s-0.4-0.3-0.6-0.5c-0.1-0.2-0.2-0.4-0.2-0.7c0-0.3,0.1-0.6,0.2-0.9
	c0.1-0.3,0.3-0.5,0.5-0.6c0.2-0.2,0.4-0.3,0.7-0.4c0.3-0.1,0.6-0.1,0.9-0.1c0.5,0,1,0.1,1.5,0.2c0.5,0.1,1,0.3,1.4,0.5l0.3-2.4
	c-0.6-0.2-1.1-0.3-1.7-0.4c-0.6-0.1-1.2-0.1-1.7-0.1c-0.6,0-1.2,0.1-1.8,0.2c-0.6,0.2-1.1,0.4-1.6,0.7c-0.3,0.2-0.5,0.4-0.7,0.7
	c-0.2,0.3-0.4,0.5-0.5,0.8c-0.1,0.3-0.2,0.6-0.3,0.9c-0.1,0.3-0.1,0.7-0.1,1c0,0.4,0,0.8,0.1,1.1c0.1,0.3,0.2,0.6,0.4,0.9
	c0.2,0.3,0.4,0.5,0.6,0.7c0.3,0.2,0.6,0.4,0.9,0.6c0.2,0.1,0.4,0.2,0.6,0.3c0.2,0.1,0.4,0.2,0.6,0.3c0.4,0.1,0.7,0.3,1.1,0.4
	c0.4,0.1,0.7,0.3,1.1,0.5c0.1,0.1,0.3,0.2,0.4,0.3c0.1,0.1,0.2,0.2,0.3,0.3c0.1,0.1,0.2,0.3,0.2,0.4c0,0.2,0.1,0.3,0.1,0.5
	c0,0.3-0.1,0.6-0.2,0.8c-0.2,0.2-0.4,0.4-0.6,0.6c-0.2,0.1-0.5,0.3-0.8,0.3c-0.3,0.1-0.6,0.1-0.9,0.1c-0.6,0-1.1-0.1-1.7-0.2
	c-0.6-0.2-1.1-0.4-1.6-0.7l-0.3,2.6c0.6,0.2,1.2,0.3,1.8,0.4c0.6,0.1,1.2,0.2,1.9,0.2c0.7,0,1.4-0.1,2-0.2c0.6-0.2,1.2-0.4,1.7-0.8
	c0.5-0.3,0.9-0.8,1.2-1.3c0.3-0.6,0.4-1.2,0.4-2c0-0.2,0-0.5-0.1-0.8S10.6,177.3,10.5,177.1"/>
<path class="st6" d="M17.5,168.4l-5.6,14.4h3l1.3-3.3H22l1.2,3.3h3.2l-5.6-14.4H17.5z M17,177.2l2.1-5.9h0l2.1,5.9H17z"/>
<path class="st6" d="M37,176.7c0,0.5,0,1-0.1,1.5c-0.1,0.5-0.2,0.9-0.5,1.3c-0.2,0.4-0.5,0.7-0.9,0.9c-0.4,0.2-0.9,0.3-1.5,0.3
	c-0.6,0-1.1-0.1-1.5-0.3c-0.4-0.2-0.7-0.5-0.9-0.9c-0.2-0.4-0.4-0.8-0.5-1.3c-0.1-0.5-0.1-1-0.1-1.5v-8.3h-2.9v9.2
	c0,1,0.1,1.8,0.4,2.5c0.3,0.7,0.7,1.3,1.2,1.7c0.5,0.4,1.1,0.8,1.8,1c0.7,0.2,1.5,0.3,2.5,0.3c0.9,0,1.7-0.1,2.5-0.3
	c0.7-0.2,1.3-0.5,1.8-1c0.5-0.4,0.9-1,1.2-1.7c0.3-0.7,0.4-1.5,0.4-2.5v-9.2H37V176.7z"/>
<path class="st6" d="M54.9,172.3c-0.2-0.5-0.4-1-0.8-1.4c-0.3-0.4-0.7-0.8-1.2-1.1c-0.4-0.3-0.8-0.5-1.3-0.7
	c-0.5-0.2-0.9-0.3-1.4-0.5c-0.5-0.1-1-0.2-1.5-0.3c-0.5-0.1-1-0.1-1.4-0.1h-4.1v14.4h3.9c1.2,0,2.3-0.1,3.4-0.4
	c1-0.2,1.9-0.7,2.6-1.2c0.7-0.6,1.3-1.3,1.7-2.2c0.4-0.9,0.6-2,0.6-3.4c0-0.5,0-1.1-0.1-1.6C55.2,173.4,55.1,172.8,54.9,172.3
	 M52,177.5c-0.2,0.6-0.6,1.1-1,1.6c-0.4,0.4-0.9,0.8-1.5,1c-0.6,0.3-1.2,0.4-1.9,0.4H46v-9.8h1.6c0.7,0,1.4,0.1,1.9,0.4
	c0.6,0.3,1.1,0.6,1.5,1c0.4,0.4,0.7,1,1,1.6c0.2,0.6,0.3,1.2,0.3,1.9S52.3,176.9,52,177.5"/>
<rect x="57.8" y="168.4" class="st6" width="2.9" height="14.4"/>
<polygon class="st6" points="72.4,176.4 77.5,176.4 77.5,174.2 72.4,174.2 72.4,170.6 78,170.6 78,168.4 69.5,168.4 69.5,182.7 
	78,182.7 78,180.5 72.4,180.5 "/>
<polygon class="st6" points="83.8,168.4 80.9,168.4 80.9,182.7 89.4,182.7 89.4,180.5 83.8,180.5 "/>
<polygon class="st6" points="94.1,176.4 99.3,176.4 99.3,174.2 94.1,174.2 94.1,170.6 99.7,170.6 99.7,168.4 91.2,168.4 91.2,182.7 
	99.8,182.7 99.8,180.5 94.1,180.5 "/>
<path class="st6" d="M112.3,180.4c-0.3,0.1-0.5,0.1-0.8,0.2c-0.3,0-0.6,0.1-0.8,0.1c-0.3,0-0.5,0-0.8,0c-0.8,0-1.4-0.1-2.1-0.4
	c-0.6-0.3-1.1-0.6-1.5-1.1c-0.4-0.5-0.7-1-1-1.6s-0.3-1.3-0.3-2c0-0.7,0.1-1.4,0.3-2c0.2-0.6,0.5-1.2,0.9-1.7
	c0.4-0.5,0.9-0.8,1.5-1.1c0.6-0.3,1.3-0.4,2-0.4c0.3,0,0.6,0,0.9,0c0.3,0,0.5,0.1,0.8,0.1c0.2,0.1,0.5,0.1,0.7,0.2
	c0.2,0.1,0.5,0.2,0.8,0.4l0.2-2.4c-0.5-0.2-1.1-0.3-1.6-0.4c-0.5-0.1-1.1-0.2-1.6-0.2c-1,0-1.8,0.1-2.7,0.3
	c-0.8,0.2-1.6,0.5-2.2,0.9c-0.7,0.4-1.2,1-1.7,1.7c-0.5,0.7-0.8,1.5-1,2.5c-0.1,0.4-0.1,0.7-0.2,1.1c0,0.4-0.1,0.8-0.1,1.1
	c0,0.5,0,1,0.1,1.5c0.1,0.5,0.2,1,0.4,1.4c0.2,0.5,0.4,0.9,0.7,1.3c0.3,0.4,0.6,0.8,1,1.1c0.4,0.3,0.8,0.6,1.3,0.8
	c0.4,0.2,0.9,0.4,1.4,0.6c0.5,0.1,1,0.2,1.5,0.3c0.5,0.1,1,0.1,1.5,0.1c0.5,0,1.1,0,1.6-0.1c0.6-0.1,1.1-0.2,1.6-0.3l-0.1-2.4
	C112.8,180.2,112.6,180.3,112.3,180.4"/>
<polygon class="st6" points="113.8,170.6 117.9,170.6 117.9,182.7 120.8,182.7 120.8,170.6 124.9,170.6 124.9,168.4 113.8,168.4 "/>
<path class="st6" d="M134.7,176.6c-0.1-0.2-0.2-0.3-0.3-0.5c-0.1-0.1-0.3-0.2-0.4-0.3c-0.2-0.1-0.3-0.2-0.5-0.2v0
	c0.4-0.1,0.8-0.2,1.2-0.4c0.4-0.2,0.7-0.4,0.9-0.7c0.3-0.3,0.5-0.6,0.6-1c0.1-0.4,0.2-0.8,0.2-1.3c0-0.6-0.1-1.2-0.2-1.6
	c-0.2-0.4-0.4-0.8-0.7-1.1c-0.3-0.3-0.6-0.5-1-0.7c-0.4-0.2-0.8-0.3-1.2-0.4c-0.4-0.1-0.9-0.1-1.4-0.1c-0.5,0-1,0-1.4,0h-3.9v14.4
	h2.9v-6h0.9c0.3,0,0.6,0,0.8,0.1c0.2,0.1,0.4,0.1,0.5,0.3c0.1,0.1,0.3,0.3,0.4,0.5c0.1,0.2,0.2,0.4,0.3,0.7l1.7,4.5h3.2l-2.3-5.6
	C134.9,176.9,134.8,176.8,134.7,176.6 M133.3,173c0,0.2-0.1,0.4-0.2,0.5c-0.1,0.2-0.3,0.4-0.5,0.5c-0.2,0.1-0.5,0.2-0.7,0.3
	c-0.3,0.1-0.5,0.1-0.8,0.1c-0.3,0-0.5,0-0.7,0h-0.9v-3.9h0.9c0.3,0,0.7,0,1.1,0c0.4,0,0.7,0.1,1,0.2c0.3,0.1,0.5,0.3,0.7,0.6
	c0.2,0.3,0.3,0.6,0.3,1.1C133.4,172.7,133.4,172.9,133.3,173"/>
<path class="st6" d="M150.9,170.2c-0.6-0.7-1.3-1.2-2.2-1.5c-0.9-0.4-1.9-0.5-3-0.5c-1.1,0-2.1,0.2-3,0.5c-0.9,0.4-1.6,0.9-2.2,1.5
	c-0.6,0.6-1,1.4-1.4,2.3c-0.3,0.9-0.5,1.9-0.5,3c0,1.1,0.2,2.1,0.5,3c0.3,0.9,0.8,1.7,1.4,2.4c0.6,0.7,1.3,1.2,2.2,1.5
	c0.9,0.4,1.9,0.5,3,0.5c1.1,0,2.1-0.2,3-0.6c0.9-0.4,1.6-0.9,2.2-1.5c0.6-0.7,1-1.4,1.4-2.4c0.3-0.9,0.5-1.9,0.5-3
	c0-1.1-0.2-2.1-0.5-3C151.9,171.6,151.5,170.8,150.9,170.2 M149.5,177.4c-0.1,0.6-0.4,1.2-0.7,1.7c-0.3,0.5-0.7,0.9-1.2,1.2
	c-0.5,0.3-1.1,0.5-1.9,0.5c-0.7,0-1.3-0.1-1.9-0.4c-0.5-0.3-0.9-0.7-1.3-1.2c-0.3-0.5-0.6-1-0.7-1.7c-0.2-0.6-0.2-1.2-0.2-1.9
	c0-0.6,0.1-1.3,0.2-1.9c0.1-0.6,0.4-1.2,0.7-1.7c0.3-0.5,0.7-0.9,1.3-1.2c0.5-0.3,1.1-0.5,1.9-0.5c0.7,0,1.4,0.1,1.9,0.4
	c0.5,0.3,0.9,0.7,1.2,1.2s0.6,1,0.7,1.6c0.1,0.6,0.2,1.2,0.2,1.9C149.7,176.1,149.6,176.8,149.5,177.4"/>
<polygon class="st6" points="164.3,179.1 164.2,179.1 158.7,168.4 155.2,168.4 155.2,182.7 158,182.7 158,172 158,172 163.5,182.7 
	167,182.7 167,168.4 164.3,168.4 "/>
<rect x="170" y="168.4" class="st6" width="2.9" height="14.4"/>
<path class="st6" d="M185.6,180.4c-0.3,0.1-0.5,0.1-0.8,0.2c-0.3,0-0.6,0.1-0.8,0.1c-0.3,0-0.5,0-0.8,0c-0.8,0-1.4-0.1-2.1-0.4
	c-0.6-0.3-1.1-0.6-1.5-1.1c-0.4-0.5-0.7-1-1-1.6s-0.3-1.3-0.3-2c0-0.7,0.1-1.4,0.3-2c0.2-0.6,0.5-1.2,0.9-1.7
	c0.4-0.5,0.9-0.8,1.5-1.1c0.6-0.3,1.3-0.4,2-0.4c0.3,0,0.6,0,0.9,0c0.3,0,0.5,0.1,0.8,0.1c0.2,0.1,0.5,0.1,0.7,0.2
	c0.2,0.1,0.5,0.2,0.8,0.4l0.2-2.4c-0.5-0.2-1.1-0.3-1.6-0.4c-0.5-0.1-1.1-0.2-1.6-0.2c-1,0-1.8,0.1-2.7,0.3
	c-0.8,0.2-1.6,0.5-2.2,0.9c-0.7,0.4-1.2,1-1.7,1.7c-0.5,0.7-0.8,1.5-1,2.5c-0.1,0.4-0.1,0.7-0.2,1.1c0,0.4-0.1,0.8-0.1,1.1
	c0,0.5,0,1,0.1,1.5c0.1,0.5,0.2,1,0.4,1.4c0.2,0.5,0.4,0.9,0.7,1.3c0.3,0.4,0.6,0.8,1,1.1c0.4,0.3,0.8,0.6,1.3,0.8
	c0.4,0.2,0.9,0.4,1.4,0.6c0.5,0.1,1,0.2,1.5,0.3c0.5,0.1,1,0.1,1.5,0.1c0.5,0,1.1,0,1.6-0.1c0.6-0.1,1.1-0.2,1.6-0.3l-0.1-2.4
	C186.1,180.2,185.8,180.3,185.6,180.4"/>
<path class="st6" d="M203,176.7c0,0.5,0,1-0.1,1.5c-0.1,0.5-0.2,0.9-0.5,1.3c-0.2,0.4-0.5,0.7-0.9,0.9c-0.4,0.2-0.9,0.3-1.5,0.3
	c-0.6,0-1.1-0.1-1.5-0.3c-0.4-0.2-0.7-0.5-0.9-0.9c-0.2-0.4-0.4-0.8-0.5-1.3c-0.1-0.5-0.1-1-0.1-1.5v-8.3h-2.9v9.2
	c0,1,0.1,1.8,0.4,2.5c0.3,0.7,0.7,1.3,1.2,1.7c0.5,0.4,1.1,0.8,1.8,1c0.7,0.2,1.5,0.3,2.5,0.3c0.9,0,1.7-0.1,2.5-0.3
	c0.7-0.2,1.3-0.5,1.8-1c0.5-0.4,0.9-1,1.2-1.7c0.3-0.7,0.4-1.5,0.4-2.5v-9.2H203V176.7z"/>
<polygon class="st6" points="220.8,168.4 218.1,168.4 218.1,179.1 218,179.1 212.5,168.4 209,168.4 209,182.7 211.7,182.7 
	211.7,172 211.8,172 217.3,182.7 220.8,182.7 "/>
<rect x="223.8" y="168.4" class="st6" width="2.9" height="14.4"/>
<polygon class="st6" points="236.8,182.7 241.6,168.4 238.7,168.4 235.1,179.7 235,179.7 231.4,168.4 228.3,168.4 233.2,182.7 "/>
<polygon class="st6" points="252,170.6 252,168.4 243.5,168.4 243.5,182.7 252,182.7 252,180.5 246.4,180.5 246.4,176.4 
	251.5,176.4 251.5,174.2 246.4,174.2 246.4,170.6 "/>
<path class="st6" d="M262.9,176.6c-0.1-0.2-0.2-0.3-0.3-0.5c-0.1-0.1-0.3-0.2-0.4-0.3c-0.2-0.1-0.3-0.2-0.5-0.2v0
	c0.4-0.1,0.8-0.2,1.2-0.4c0.4-0.2,0.7-0.4,0.9-0.7c0.3-0.3,0.5-0.6,0.6-1c0.1-0.4,0.2-0.8,0.2-1.3c0-0.6-0.1-1.2-0.2-1.6
	c-0.2-0.4-0.4-0.8-0.7-1.1c-0.3-0.3-0.6-0.5-1-0.7c-0.4-0.2-0.8-0.3-1.2-0.4c-0.4-0.1-0.9-0.1-1.4-0.1c-0.5,0-1,0-1.4,0h-3.9v14.4
	h2.9v-6h0.9c0.3,0,0.6,0,0.8,0.1c0.2,0.1,0.4,0.1,0.5,0.3c0.1,0.1,0.3,0.3,0.4,0.5c0.1,0.2,0.2,0.4,0.3,0.7l1.7,4.5h3.2l-2.3-5.6
	C263.1,176.9,263,176.8,262.9,176.6 M261.5,173c0,0.2-0.1,0.4-0.2,0.5c-0.1,0.2-0.3,0.4-0.5,0.5c-0.2,0.1-0.5,0.2-0.7,0.3
	c-0.3,0.1-0.5,0.1-0.8,0.1c-0.3,0-0.5,0-0.7,0h-0.9v-3.9h0.9c0.3,0,0.7,0,1.1,0c0.4,0,0.7,0.1,1,0.2c0.3,0.1,0.5,0.3,0.7,0.6
	c0.2,0.3,0.3,0.6,0.3,1.1C261.6,172.7,261.5,172.9,261.5,173"/>
<path class="st6" d="M276.3,178.6c0-0.2,0-0.5-0.1-0.8c0-0.3-0.1-0.5-0.2-0.8c-0.2-0.4-0.4-0.7-0.6-1c-0.3-0.3-0.5-0.5-0.9-0.7
	c-0.3-0.2-0.6-0.4-1-0.5c-0.3-0.2-0.7-0.3-1-0.4c-0.3-0.1-0.7-0.3-1-0.4c-0.3-0.1-0.6-0.3-0.8-0.4c-0.2-0.1-0.4-0.3-0.6-0.5
	c-0.1-0.2-0.2-0.4-0.2-0.7c0-0.3,0.1-0.6,0.2-0.9c0.1-0.3,0.3-0.5,0.5-0.6c0.2-0.2,0.4-0.3,0.7-0.4c0.3-0.1,0.6-0.1,0.9-0.1
	c0.5,0,1,0.1,1.5,0.2c0.5,0.1,1,0.3,1.4,0.5l0.3-2.4c-0.6-0.2-1.1-0.3-1.7-0.4c-0.6-0.1-1.2-0.1-1.7-0.1c-0.6,0-1.2,0.1-1.8,0.2
	c-0.6,0.2-1.1,0.4-1.6,0.7c-0.3,0.2-0.5,0.4-0.7,0.7c-0.2,0.3-0.4,0.5-0.5,0.8c-0.1,0.3-0.2,0.6-0.3,0.9c-0.1,0.3-0.1,0.7-0.1,1
	c0,0.4,0,0.8,0.1,1.1c0.1,0.3,0.2,0.6,0.4,0.9c0.2,0.3,0.4,0.5,0.6,0.7c0.3,0.2,0.5,0.4,0.9,0.6c0.2,0.1,0.4,0.2,0.6,0.3
	c0.2,0.1,0.4,0.2,0.6,0.3c0.4,0.1,0.7,0.3,1.1,0.4c0.4,0.1,0.7,0.3,1.1,0.5c0.1,0.1,0.3,0.2,0.4,0.3s0.2,0.2,0.3,0.3
	c0.1,0.1,0.1,0.3,0.2,0.4c0,0.2,0.1,0.3,0.1,0.5c0,0.3-0.1,0.6-0.2,0.8c-0.2,0.2-0.4,0.4-0.6,0.6c-0.2,0.2-0.5,0.3-0.8,0.3
	c-0.3,0.1-0.6,0.1-0.9,0.1c-0.6,0-1.1-0.1-1.7-0.2c-0.6-0.2-1.1-0.4-1.6-0.7l-0.3,2.6c0.6,0.2,1.2,0.3,1.8,0.4
	c0.6,0.1,1.2,0.2,1.9,0.2c0.7,0,1.4-0.1,2-0.2c0.7-0.2,1.2-0.4,1.7-0.8c0.5-0.3,0.9-0.8,1.2-1.3
	C276.2,180.1,276.3,179.4,276.3,178.6"/>
<rect x="278.7" y="168.4" class="st6" width="2.9" height="14.4"/>
<polygon class="st6" points="290.2,182.7 290.2,170.6 294.3,170.6 294.3,168.4 283.2,168.4 283.2,170.6 287.3,170.6 287.3,182.7 "/>
<polygon class="st6" points="300,182.7 302.9,182.7 302.9,177.1 308,168.4 305,168.4 301.5,174.4 298.1,168.4 294.7,168.4 
	300,177.1 "/>
<path class="st6" d="M4.5,139.6c0.1,0.1,0.3,0.3,0.5,0.4c0.2,0.1,0.4,0.1,0.6,0.1c0.2,0,0.4,0,0.6-0.1c0.2-0.1,0.4-0.2,0.5-0.4
	c0.2-0.1,0.3-0.3,0.4-0.5c0.1-0.2,0.1-0.4,0.1-0.6c0-0.2,0-0.4-0.1-0.6c-0.1-0.2-0.2-0.4-0.4-0.5c-0.1-0.2-0.3-0.3-0.5-0.4
	c-0.2-0.1-0.4-0.1-0.6-0.1c-0.2,0-0.4,0-0.6,0.1c-0.2,0.1-0.4,0.2-0.5,0.4c-0.1,0.1-0.3,0.3-0.4,0.5C4,138,4,138.2,4,138.4
	c0,0.2,0,0.4,0.1,0.6C4.2,139.2,4.3,139.4,4.5,139.6"/>
<path class="st6" d="M8.3,139.6c0.1,0.1,0.3,0.3,0.5,0.4C9,140,9.2,140,9.5,140s0.4,0,0.6-0.1c0.2-0.1,0.4-0.2,0.5-0.4
	c0.1-0.1,0.3-0.3,0.4-0.5c0.1-0.2,0.1-0.4,0.1-0.6c0-0.2,0-0.4-0.1-0.6c-0.1-0.2-0.2-0.4-0.4-0.5c-0.1-0.2-0.3-0.3-0.5-0.4
	c-0.2-0.1-0.4-0.1-0.6-0.1s-0.4,0-0.6,0.1c-0.2,0.1-0.4,0.2-0.5,0.4c-0.1,0.1-0.3,0.3-0.4,0.5c-0.1,0.2-0.1,0.4-0.1,0.6
	c0,0.2,0,0.4,0.1,0.6C8,139.2,8.2,139.4,8.3,139.6"/>
<path class="st6" d="M3.2,153.3c0.6,0.2,1.2,0.2,1.7,0.2c0.6,0,1.1-0.1,1.6-0.2c0.5-0.1,1.1-0.3,1.6-0.6c0.1,0.2,0.3,0.4,0.4,0.6
	s0.4,0.4,0.7,0.5c0.3,0.1,0.7,0.3,1.1,0.4c0.4,0.1,0.9,0.1,1.5,0.1h1.4h0.1H16c0.6,0,1.2-0.1,1.6-0.3c0.4-0.2,0.8-0.4,1.1-0.8
	c0.5,0.3,1,0.6,1.6,0.8c0.5,0.2,1.1,0.2,1.8,0.3c0.1,0,0.2,0,0.3,0c0,0,0,0,0,0h0.1h0.1h6.5v-10.5h-3.3v7.7h-3.2h-0.1h0
	c-0.5,0-1,0-1.5-0.1c-0.5-0.1-0.9-0.2-1.4-0.4c0-0.1,0-0.3,0-0.4c0-0.1,0-0.3,0-0.5v-6.3h-3.3v5.8c0,0.4,0,0.7-0.1,0.9
	c-0.1,0.2-0.2,0.4-0.3,0.6c-0.1,0.1-0.3,0.2-0.5,0.3c-0.2,0.1-0.4,0.1-0.7,0.1h-1.3h-0.1h-0.8c-0.3,0-0.5,0-0.6-0.1
	c-0.2-0.1-0.3-0.1-0.4-0.3c-0.1-0.1-0.1-0.3-0.2-0.5c0-0.2,0-0.5,0-0.8v-8.3H8v1.4c-0.5,0.1-1,0.3-1.6,0.4c-0.6,0.2-1.2,0.4-1.8,0.6
	c-0.6,0.2-1.2,0.5-1.7,0.9c-0.6,0.3-1,0.7-1.5,1.1c-0.4,0.4-0.8,0.9-1,1.4S0,148.7,0,149.4c0,0.7,0.2,1.4,0.5,1.9
	c0.3,0.5,0.7,1,1.2,1.3C2.1,152.9,2.6,153.1,3.2,153.3 M3.5,147.9c0.2-0.3,0.6-0.6,1-0.9c0.4-0.3,0.9-0.5,1.5-0.7
	c0.6-0.2,1.3-0.4,2-0.5v4.3c-0.3,0.2-0.7,0.4-1.2,0.5c-0.5,0.1-0.9,0.2-1.4,0.2c-0.3,0-0.5,0-0.8-0.1c-0.3-0.1-0.5-0.2-0.7-0.3
	c-0.2-0.1-0.4-0.3-0.5-0.6s-0.2-0.5-0.2-0.8C3.2,148.6,3.3,148.3,3.5,147.9"/>
<path class="st6" d="M20.4,156.6c-0.2-0.1-0.4-0.1-0.6-0.1s-0.4,0-0.6,0.1c-0.2,0.1-0.4,0.2-0.5,0.4c-0.1,0.1-0.3,0.3-0.4,0.5
	c-0.1,0.2-0.1,0.4-0.1,0.6s0,0.4,0.1,0.6c0.1,0.2,0.2,0.4,0.4,0.5c0.2,0.1,0.3,0.3,0.5,0.4c0.2,0.1,0.4,0.1,0.6,0.1s0.4,0,0.6-0.1
	c0.2-0.1,0.4-0.2,0.5-0.4c0.1-0.2,0.3-0.3,0.4-0.5c0.1-0.2,0.1-0.4,0.1-0.6s0-0.4-0.1-0.6c-0.1-0.2-0.2-0.4-0.4-0.5
	C20.8,156.8,20.6,156.6,20.4,156.6"/>
<path class="st6" d="M16.6,156.6c-0.2-0.1-0.4-0.1-0.6-0.1c-0.2,0-0.4,0-0.6,0.1c-0.2,0.1-0.4,0.2-0.5,0.4c-0.2,0.1-0.3,0.3-0.4,0.5
	c-0.1,0.2-0.1,0.4-0.1,0.6s0,0.4,0.1,0.6c0.1,0.2,0.2,0.4,0.4,0.5c0.1,0.1,0.3,0.3,0.5,0.4c0.2,0.1,0.4,0.1,0.6,0.1
	c0.2,0,0.4,0,0.6-0.1c0.2-0.1,0.4-0.2,0.5-0.4c0.1-0.2,0.3-0.3,0.4-0.5c0.1-0.2,0.1-0.4,0.1-0.6s0-0.4-0.1-0.6
	c-0.1-0.2-0.2-0.4-0.4-0.5C16.9,156.8,16.8,156.6,16.6,156.6"/>
<path class="st6" d="M26.3,140.2c0.1,0.2,0.3,0.3,0.5,0.4c0.2,0.1,0.4,0.1,0.6,0.1c0.2,0,0.4,0,0.6-0.1c0.2-0.1,0.4-0.2,0.5-0.4
	c0.1-0.1,0.3-0.3,0.4-0.5c0.1-0.2,0.1-0.4,0.1-0.6c0-0.2,0-0.4-0.1-0.6c-0.1-0.2-0.2-0.4-0.4-0.5c-0.1-0.2-0.3-0.3-0.5-0.4
	c-0.2-0.1-0.4-0.1-0.6-0.1c-0.2,0-0.4,0-0.6,0.1c-0.2,0.1-0.4,0.2-0.5,0.4c-0.1,0.1-0.3,0.3-0.4,0.5c-0.1,0.2-0.1,0.4-0.1,0.6
	c0,0.2,0,0.4,0.1,0.6C26,139.9,26.1,140.1,26.3,140.2"/>
<path class="st6" d="M44.5,151.8v-2.2c0-0.8-0.1-1.6-0.2-2.2c-0.2-0.6-0.4-1.2-0.6-1.6c-0.3-0.5-0.6-0.8-0.9-1.1
	c-0.4-0.3-0.7-0.5-1.1-0.7c-0.4-0.2-0.8-0.3-1.2-0.4c-0.4-0.1-0.8-0.1-1.2-0.1c-0.8,0-1.6,0.1-2.4,0.4c-0.7,0.3-1.4,0.7-1.9,1.2
	c-0.5,0.5-1,1.1-1.3,1.8c-0.3,0.7-0.5,1.5-0.5,2.3c0,0.6,0.1,1.2,0.3,1.8c0.2,0.6,0.6,1.2,1,1.7c0.5,0.5,1.1,0.9,1.8,1.2
	c0.7,0.3,1.7,0.5,2.7,0.5c0.2,0,0.6,0,0.9-0.1c0.4,0,0.7-0.1,1-0.2c-0.2,0.4-0.5,0.7-0.8,1.1c-0.4,0.3-0.8,0.6-1.3,0.9
	c-0.5,0.3-1.1,0.5-1.7,0.7c-0.6,0.2-1.3,0.3-2.1,0.4h-0.3L35,160c1.4-0.1,2.7-0.4,3.8-0.7c1.2-0.3,2.2-0.8,3-1.4
	c0.8-0.6,1.5-1.4,2-2.4S44.5,153.2,44.5,151.8 M41.1,151.4c-0.1,0-0.2,0.1-0.4,0.1s-0.3,0.1-0.4,0.1c-0.2,0-0.3,0-0.5,0.1
	c-0.2,0-0.3,0-0.5,0c-0.5,0-1-0.1-1.4-0.2c-0.4-0.1-0.7-0.3-1-0.6c-0.3-0.2-0.4-0.5-0.6-0.9c-0.1-0.3-0.2-0.7-0.2-1.1
	c0-0.4,0.1-0.8,0.2-1.1c0.1-0.3,0.3-0.6,0.6-0.9c0.2-0.2,0.5-0.4,0.8-0.6c0.3-0.1,0.6-0.2,0.9-0.2c0.3,0,0.6,0.1,0.9,0.2
	c0.3,0.1,0.5,0.3,0.8,0.6c0.2,0.3,0.4,0.7,0.6,1.3c0.1,0.6,0.2,1.3,0.2,2.1V151.4z"/>
<path class="st6" d="M56.6,140.2c0.1,0.2,0.3,0.3,0.5,0.4c0.2,0.1,0.4,0.1,0.6,0.1c0.2,0,0.4,0,0.6-0.1c0.2-0.1,0.4-0.2,0.5-0.4
	c0.1-0.1,0.3-0.3,0.4-0.5c0.1-0.2,0.1-0.4,0.1-0.6c0-0.2,0-0.4-0.1-0.6c-0.1-0.2-0.2-0.4-0.4-0.5c-0.1-0.2-0.3-0.3-0.5-0.4
	c-0.2-0.1-0.4-0.1-0.6-0.1c-0.2,0-0.4,0-0.6,0.1c-0.2,0.1-0.4,0.2-0.5,0.4c-0.1,0.1-0.3,0.3-0.4,0.5c-0.1,0.2-0.1,0.4-0.1,0.6
	c0,0.2,0,0.4,0.1,0.6C56.3,139.9,56.4,140.1,56.6,140.2"/>
<path class="st6" d="M60.4,140.2c0.1,0.2,0.3,0.3,0.5,0.4c0.2,0.1,0.4,0.1,0.6,0.1c0.2,0,0.4,0,0.6-0.1c0.2-0.1,0.4-0.2,0.5-0.4
	c0.2-0.1,0.3-0.3,0.4-0.5c0.1-0.2,0.1-0.4,0.1-0.6c0-0.2,0-0.4-0.1-0.6c-0.1-0.2-0.2-0.4-0.4-0.5c-0.1-0.2-0.3-0.3-0.5-0.4
	c-0.2-0.1-0.4-0.1-0.6-0.1c-0.2,0-0.4,0-0.6,0.1c-0.2,0.1-0.4,0.2-0.5,0.4c-0.2,0.1-0.3,0.3-0.4,0.5c-0.1,0.2-0.1,0.4-0.1,0.6
	c0,0.2,0,0.4,0.1,0.6C60.2,139.9,60.3,140.1,60.4,140.2"/>
<path class="st6" d="M72.7,153c0.5,0.4,1.1,0.7,1.7,1c0.6,0.2,1.4,0.4,2.3,0.4c0,0,0,0,0,0c0.1,0,0.1,0,0.2,0h0h0.1h6.3V136H80v15.6
	h-2.9H77c-0.6,0-1.2-0.1-1.7-0.2c-0.5-0.1-1-0.3-1.5-0.5c0.1-0.3,0.1-0.6,0.1-0.9c0-0.6-0.1-1.1-0.2-1.6c-0.2-0.5-0.4-1-0.7-1.4
	c-0.3-0.5-0.7-0.9-1.2-1.4c-0.5-0.5-1.1-0.9-1.8-1.4l3.9-6.7l-2.4-1.6l-5.5,9.3c0.8,0.5,1.5,0.9,2.1,1.3c0.6,0.4,1.1,0.8,1.6,1.2
	c0.4,0.4,0.7,0.8,1,1.1c0.2,0.4,0.3,0.7,0.3,1.1c0,0.2,0,0.5-0.1,0.7c-0.1,0.2-0.2,0.4-0.4,0.5c-0.2,0.1-0.5,0.3-0.8,0.3
	s-0.8,0.1-1.3,0.1h-3.8h-0.1h0c-0.5,0-1,0-1.5-0.1c-0.5-0.1-0.9-0.2-1.4-0.4c0-0.1,0-0.3,0-0.4c0-0.1,0-0.3,0-0.5v-6.3h-3.3v5.8
	c0,0.4,0,0.7-0.1,0.9s-0.2,0.4-0.3,0.6c-0.1,0.1-0.3,0.2-0.5,0.3c-0.2,0.1-0.4,0.1-0.7,0.1h-1.3h-0.1h-2.5v-7.7h-3.3v8.8
	c0,0.6,0,1.1-0.1,1.6c-0.1,0.4-0.3,0.8-0.5,1.2c-0.3,0.3-0.6,0.6-1.1,0.8c-0.5,0.2-1.1,0.4-1.8,0.6l0.4,2.8c0.9-0.1,1.8-0.4,2.5-0.6
	c0.7-0.3,1.3-0.6,1.8-1c0.5-0.4,0.9-0.9,1.2-1.5c0.3-0.6,0.5-1.3,0.7-2.1h2.7h0.1h2.5c0.6,0,1.2-0.1,1.6-0.3
	c0.4-0.2,0.8-0.4,1.1-0.8c0.5,0.3,1,0.6,1.6,0.8c0.5,0.2,1.1,0.2,1.8,0.3c0.1,0,0.2,0,0.3,0c0,0,0,0,0,0h0.1h0.1h4.1
	c1,0,1.9-0.1,2.5-0.4C71.7,153.8,72.3,153.4,72.7,153"/>
<polygon class="st6" points="102.4,136 99,136 99,151.6 95.7,151.6 95.7,140.3 92.3,140.3 92.3,151.6 86.6,151.6 86.6,154.4 
	102.4,154.4 "/>
<path class="st6" d="M91.6,161.2h4.8v-1.5h-0.7c-0.5,0-0.9-0.1-1.2-0.3c-0.3-0.2-0.4-0.5-0.4-0.8c0-0.3,0.1-0.5,0.3-0.6
	c0.2-0.1,0.4-0.2,0.7-0.2c0.1,0,0.3,0,0.5,0c0.2,0,0.4,0.1,0.5,0.1l0.3-1.6c-0.3-0.1-0.6-0.1-0.8-0.1c-0.2,0-0.4,0-0.6,0
	c-0.5,0-0.8,0.1-1.2,0.2c-0.3,0.1-0.6,0.3-0.8,0.5c-0.2,0.2-0.4,0.4-0.5,0.7c-0.1,0.2-0.1,0.5-0.1,0.8c0,0.3,0.1,0.5,0.2,0.8
	c0.1,0.2,0.2,0.5,0.4,0.6h-1.3V161.2z"/>
<rect x="106" y="136" class="st6" width="3.3" height="18.4"/>
<path class="st6" d="M127.6,153.9c0.3,0.2,0.7,0.3,1.1,0.4c0.4,0.1,0.9,0.1,1.5,0.1h1.4h0.1h6.5v-10.5h-3.3v7.7h-3.2h-0.1h-0.8
	c-0.3,0-0.5,0-0.6-0.1c-0.2-0.1-0.3-0.1-0.4-0.3c-0.1-0.1-0.1-0.3-0.2-0.5c0-0.2,0-0.5,0-0.8v-8.3h-3.3v1.4c-0.5,0.1-1,0.3-1.6,0.4
	c-0.6,0.2-1.2,0.4-1.8,0.6c-0.6,0.2-1.2,0.5-1.7,0.9c-0.6,0.3-1,0.7-1.5,1.1c-0.4,0.4-0.8,0.9-1,1.4c-0.3,0.5-0.4,1.1-0.4,1.8
	c0,0.7,0.2,1.4,0.5,1.9c0.3,0.5,0.7,1,1.2,1.3c0.5,0.3,1,0.6,1.6,0.7c0.6,0.2,1.2,0.2,1.7,0.2c0.6,0,1.1-0.1,1.6-0.2
	c0.5-0.1,1.1-0.3,1.6-0.6c0.1,0.2,0.3,0.4,0.4,0.6C127,153.6,127.3,153.7,127.6,153.9 M126.2,150.1c-0.3,0.2-0.7,0.4-1.2,0.5
	c-0.5,0.1-0.9,0.2-1.4,0.2c-0.3,0-0.5,0-0.8-0.1c-0.3-0.1-0.5-0.2-0.7-0.3c-0.2-0.1-0.4-0.3-0.5-0.6c-0.1-0.2-0.2-0.5-0.2-0.8
	c0-0.4,0.1-0.8,0.3-1.1c0.2-0.3,0.6-0.6,1-0.9c0.4-0.3,0.9-0.5,1.5-0.7c0.6-0.2,1.3-0.4,2-0.5V150.1z"/>
<path class="st6" d="M122.6,139.6c0.1,0.1,0.3,0.3,0.5,0.4c0.2,0.1,0.4,0.1,0.6,0.1c0.2,0,0.4,0,0.6-0.1c0.2-0.1,0.4-0.2,0.5-0.4
	c0.2-0.1,0.3-0.3,0.4-0.5c0.1-0.2,0.1-0.4,0.1-0.6c0-0.2,0-0.4-0.1-0.6c-0.1-0.2-0.2-0.4-0.4-0.5c-0.1-0.2-0.3-0.3-0.5-0.4
	c-0.2-0.1-0.4-0.1-0.6-0.1c-0.2,0-0.4,0-0.6,0.1c-0.2,0.1-0.4,0.2-0.5,0.4c-0.1,0.1-0.3,0.3-0.4,0.5c-0.1,0.2-0.1,0.4-0.1,0.6
	c0,0.2,0,0.4,0.1,0.6C122.4,139.2,122.5,139.4,122.6,139.6"/>
<path class="st6" d="M126.5,139.6c0.1,0.1,0.3,0.3,0.5,0.4c0.2,0.1,0.4,0.1,0.6,0.1c0.2,0,0.4,0,0.6-0.1c0.2-0.1,0.4-0.2,0.5-0.4
	c0.1-0.1,0.3-0.3,0.4-0.5c0.1-0.2,0.1-0.4,0.1-0.6c0-0.2,0-0.4-0.1-0.6c-0.1-0.2-0.2-0.4-0.4-0.5c-0.1-0.2-0.3-0.3-0.5-0.4
	c-0.2-0.1-0.4-0.1-0.6-0.1c-0.2,0-0.4,0-0.6,0.1c-0.2,0.1-0.4,0.2-0.5,0.4c-0.1,0.1-0.3,0.3-0.4,0.5c-0.1,0.2-0.1,0.4-0.1,0.6
	c0,0.2,0,0.4,0.1,0.6C126.2,139.2,126.3,139.4,126.5,139.6"/>
<path class="st6" d="M134.7,156.6c-0.2-0.1-0.4-0.1-0.6-0.1c-0.2,0-0.4,0-0.6,0.1c-0.2,0.1-0.4,0.2-0.5,0.4
	c-0.1,0.1-0.3,0.3-0.4,0.5c-0.1,0.2-0.1,0.4-0.1,0.6s0,0.4,0.1,0.6c0.1,0.2,0.2,0.4,0.4,0.5c0.1,0.1,0.3,0.3,0.5,0.4
	c0.2,0.1,0.4,0.1,0.6,0.1c0.2,0,0.4,0,0.6-0.1c0.2-0.1,0.4-0.2,0.5-0.4c0.1-0.2,0.3-0.3,0.4-0.5c0.1-0.2,0.1-0.4,0.1-0.6
	s0-0.4-0.1-0.6c-0.1-0.2-0.2-0.4-0.4-0.5C135.1,156.8,134.9,156.6,134.7,156.6"/>
<path class="st6" d="M139.4,158.7c0.1-0.2,0.1-0.4,0.1-0.6c0-0.2,0-0.4-0.1-0.6c-0.1-0.2-0.2-0.4-0.4-0.5c-0.1-0.1-0.3-0.3-0.5-0.4
	c-0.2-0.1-0.4-0.1-0.6-0.1c-0.2,0-0.4,0-0.6,0.1c-0.2,0.1-0.4,0.2-0.5,0.4c-0.1,0.2-0.3,0.3-0.4,0.5c-0.1,0.2-0.1,0.4-0.1,0.6
	c0,0.2,0,0.4,0.1,0.6c0.1,0.2,0.2,0.4,0.4,0.5c0.1,0.1,0.3,0.3,0.5,0.4c0.2,0.1,0.4,0.1,0.6,0.1c0.2,0,0.4,0,0.6-0.1
	c0.2-0.1,0.4-0.2,0.5-0.4C139.2,159.1,139.3,158.9,139.4,158.7"/>
<path class="st6" d="M147.8,154c0.7-0.2,1.3-0.6,1.8-1c0.5-0.4,0.8-0.9,1-1.5c0.2-0.6,0.3-1.2,0.3-1.8c0-1.2-0.4-2.4-1.3-3.7
	c-0.9-1.3-2.1-2.6-3.8-4l-2.4,2.4c0.5,0.4,1,0.9,1.5,1.4c0.5,0.5,1,1,1.4,1.5c0.4,0.5,0.7,1,1,1.5c0.2,0.5,0.4,0.9,0.4,1.3
	c0,0.2,0,0.4-0.1,0.6c-0.1,0.2-0.2,0.4-0.3,0.5c-0.2,0.1-0.4,0.3-0.7,0.3c-0.3,0.1-0.7,0.1-1.2,0.1h-4.9v2.8h4.9
	C146.2,154.4,147.1,154.3,147.8,154"/>
<path class="st6" d="M214,136h-3.3v15.6h-3h-0.1h0c-0.5,0-1,0-1.5-0.1c-0.5-0.1-0.9-0.2-1.4-0.4c0-0.1,0-0.3,0-0.4
	c0-0.1,0-0.3,0-0.5v-6.3h-3.3v5.8c0,0.4,0,0.7-0.1,0.9c-0.1,0.2-0.2,0.4-0.3,0.6c-0.1,0.1-0.3,0.2-0.5,0.3c-0.2,0.1-0.4,0.1-0.7,0.1
	c-0.4,0-0.9-0.1-1.3-0.2c-0.5-0.1-0.9-0.3-1.4-0.6c0-0.1,0-0.2,0-0.3c0-0.1,0-0.2,0-0.3v-4.9h-3.3v4.4c0,0.4,0,0.7-0.1,0.9
	c-0.1,0.2-0.2,0.4-0.3,0.6c-0.1,0.1-0.3,0.2-0.5,0.3c-0.2,0.1-0.4,0.1-0.7,0.1c-0.4,0-0.9-0.1-1.4-0.2c-0.5-0.1-0.9-0.3-1.4-0.6
	c0-0.1,0-0.2,0-0.3v-0.3v-3.7h-3.3v3.3c0,0.4,0,0.7-0.1,0.9c-0.1,0.2-0.2,0.4-0.3,0.6c-0.1,0.1-0.3,0.2-0.5,0.3
	c-0.2,0.1-0.4,0.1-0.7,0.1h-2.6H182h-1.2c-0.3,0-0.7,0-1,0c-0.3,0-0.7-0.1-1-0.1c-0.3,0-0.6-0.1-0.9-0.1c-0.3-0.1-0.5-0.1-0.7-0.2
	c0.6-0.6,1.1-1.2,1.4-1.7c0.4-0.5,0.7-1,0.9-1.4c0.2-0.4,0.4-0.8,0.4-1.2c0.1-0.3,0.1-0.6,0.1-0.9c0-0.5-0.1-0.9-0.4-1.3
	c-0.3-0.4-0.6-0.6-1.1-0.9c-0.4-0.2-0.9-0.4-1.5-0.5s-1.1-0.2-1.6-0.2c-0.6,0-1.3,0-1.8,0.1c-0.6,0.1-1.1,0.2-1.6,0.4
	c-0.5,0.1-1,0.3-1.4,0.5c-0.4,0.2-0.7,0.3-1,0.5c-0.1,0.1-0.3,0.2-0.4,0.4c-0.1,0.2-0.2,0.4-0.3,0.6c-0.1,0.2-0.2,0.5-0.3,0.7
	c-0.1,0.2-0.1,0.5-0.2,0.6c0.1,0.1,0.2,0.2,0.3,0.4c0.1,0.2,0.3,0.4,0.6,0.8c0.1,0.2,0.3,0.4,0.5,0.7c0.2,0.3,0.4,0.5,0.7,0.8
	c0.2,0.3,0.5,0.5,0.7,0.8c0.3,0.3,0.5,0.5,0.8,0.7c-0.3,0.1-0.7,0.2-1.3,0.3c-0.6,0.1-1.2,0.1-1.9,0.1h-1.7h-0.1h-2.2v-2
	c0-0.8-0.1-1.6-0.2-2.2c-0.2-0.6-0.4-1.2-0.6-1.6c-0.3-0.5-0.6-0.8-0.9-1.1c-0.4-0.3-0.7-0.5-1.1-0.7c-0.4-0.2-0.8-0.3-1.2-0.4
	c-0.4-0.1-0.8-0.1-1.2-0.1c-0.9,0-1.8,0.2-2.5,0.5c-0.7,0.3-1.4,0.7-1.9,1.3c-0.5,0.5-0.9,1.2-1.2,1.9c-0.3,0.7-0.4,1.4-0.4,2.2
	c0,0.6,0.1,1.2,0.3,1.8c0.2,0.6,0.6,1.2,1.1,1.7c0.5,0.5,1.1,0.9,1.9,1.2c0.8,0.3,1.8,0.5,2.9,0.5h1.6c-0.2,0.4-0.5,0.7-0.9,1
	c-0.4,0.3-0.8,0.6-1.4,0.9c-0.5,0.3-1.1,0.5-1.8,0.6c-0.7,0.2-1.4,0.3-2.2,0.3l0.3,2.7c1.1-0.1,2.1-0.3,3.1-0.6
	c1-0.3,1.9-0.7,2.7-1.1c0.8-0.5,1.5-1,2.1-1.7c0.6-0.6,1-1.4,1.4-2.2h2.4h0.1h1.6c0.6,0,1.1,0,1.6-0.1c0.5-0.1,1-0.2,1.5-0.3
	c0.5-0.1,0.9-0.3,1.4-0.4c0.4-0.2,0.8-0.3,1.2-0.5c0.3,0.1,0.6,0.3,1,0.4c0.4,0.2,0.8,0.3,1.3,0.5c0.5,0.1,1,0.3,1.6,0.4
	c0.6,0.1,1.2,0.1,1.8,0.1h1.9h0.1h3.7c0.7,0,1.3-0.1,1.8-0.4c0.5-0.2,0.9-0.6,1.2-1c0.5,0.4,1.1,0.7,1.8,1c0.7,0.2,1.5,0.4,2.3,0.4
	h0.6c0.7,0,1.3-0.1,1.8-0.4c0.5-0.2,0.9-0.5,1.2-0.9c0.5,0.4,1.1,0.7,1.8,0.9c0.7,0.2,1.4,0.4,2.3,0.4h0.6c0.6,0,1.2-0.1,1.6-0.3
	c0.4-0.2,0.8-0.4,1.1-0.8c0.5,0.3,1,0.6,1.6,0.8c0.5,0.2,1.1,0.2,1.8,0.3c0.1,0,0.2,0,0.3,0c0,0,0,0,0,0h0.1h0.1h6.3V136z
	 M161.6,151.6h-1.8c-1.1,0-1.9-0.2-2.4-0.7c-0.5-0.5-0.7-1.1-0.7-1.9c0-0.4,0.1-0.8,0.2-1.1c0.1-0.3,0.3-0.6,0.6-0.9
	c0.2-0.2,0.5-0.4,0.8-0.6c0.3-0.1,0.6-0.2,0.9-0.2c0.3,0,0.6,0.1,0.9,0.2c0.3,0.1,0.5,0.3,0.8,0.6c0.2,0.3,0.4,0.7,0.6,1.3
	c0.1,0.6,0.2,1.3,0.2,2.1V151.6z M176.9,147.6c-0.1,0.2-0.2,0.5-0.4,0.7c-0.2,0.3-0.4,0.6-0.7,0.8c-0.3,0.3-0.6,0.6-1.1,0.9
	c-0.3-0.2-0.6-0.5-0.9-0.8c-0.3-0.3-0.6-0.7-0.9-1c-0.3-0.3-0.6-0.7-0.8-1c-0.2-0.3-0.4-0.6-0.6-0.8c0.2-0.1,0.5-0.2,0.8-0.3
	c0.3-0.1,0.5-0.2,0.8-0.2c0.3-0.1,0.5-0.1,0.8-0.2c0.3,0,0.5-0.1,0.7-0.1c0.3,0,0.7,0,0.9,0.1c0.3,0.1,0.5,0.2,0.7,0.3
	c0.2,0.1,0.4,0.3,0.5,0.4s0.2,0.3,0.2,0.5C177,147.2,177,147.4,176.9,147.6"/>
<rect x="217.4" y="136" class="st6" width="3.3" height="18.4"/>
<path class="st6" d="M234,139.6c0.1,0.1,0.3,0.3,0.5,0.4c0.2,0.1,0.4,0.1,0.6,0.1c0.2,0,0.4,0,0.6-0.1c0.2-0.1,0.4-0.2,0.5-0.4
	c0.2-0.1,0.3-0.3,0.4-0.5c0.1-0.2,0.1-0.4,0.1-0.6c0-0.2,0-0.4-0.1-0.6c-0.1-0.2-0.2-0.4-0.4-0.5c-0.1-0.2-0.3-0.3-0.5-0.4
	c-0.2-0.1-0.4-0.1-0.6-0.1c-0.2,0-0.4,0-0.6,0.1c-0.2,0.1-0.4,0.2-0.5,0.4c-0.1,0.1-0.3,0.3-0.4,0.5c-0.1,0.2-0.1,0.4-0.1,0.6
	c0,0.2,0,0.4,0.1,0.6C233.7,139.2,233.8,139.4,234,139.6"/>
<path class="st6" d="M231.1,152.5c0.5,0.3,1,0.6,1.6,0.7s1.2,0.2,1.7,0.2s1.1-0.1,1.6-0.2c0.5-0.1,1.1-0.3,1.6-0.6
	c0.1,0.2,0.3,0.4,0.4,0.6c0.2,0.2,0.4,0.4,0.7,0.5c0.3,0.1,0.7,0.3,1.1,0.4c0.4,0.1,0.9,0.1,1.5,0.1h1.4h0.1h1.6
	c0.6,0,1.1,0,1.6-0.1c0.5-0.1,1-0.2,1.5-0.3s0.9-0.3,1.4-0.4c0.4-0.2,0.8-0.3,1.2-0.5c0.3,0.1,0.6,0.3,1,0.4
	c0.4,0.2,0.8,0.3,1.3,0.5c0.5,0.1,1,0.3,1.6,0.4c0.6,0.1,1.2,0.1,1.8,0.1h1.9h0.1h0.9c1.5,0,2.6-0.5,3.3-1.6
	c0.2,0.2,0.5,0.4,0.8,0.6c0.3,0.2,0.6,0.4,1,0.6c0.4,0.2,0.8,0.3,1.3,0.4c0.5,0.1,1,0.2,1.6,0.2c0.8,0,1.6-0.1,2.2-0.4
	c0.7-0.3,1.2-0.7,1.6-1.1c0.4-0.5,0.8-1,1-1.6c0.2-0.6,0.3-1.3,0.3-1.9c0-0.4-0.1-0.9-0.1-1.3c-0.1-0.4-0.2-0.9-0.4-1.3
	c-0.2-0.4-0.5-0.8-0.8-1.2c-0.3-0.4-0.7-0.7-1.1-1c-0.4-0.3-0.9-0.5-1.4-0.7c-0.5-0.2-1.1-0.3-1.7-0.3c-0.4,0-0.9,0.1-1.5,0.2
	c-0.6,0.2-1.1,0.5-1.7,0.9c-0.6,0.5-1.1,1.1-1.7,2c-0.5,0.9-1,2-1.4,3.4c-0.1,0.5-0.4,0.8-0.7,1c-0.3,0.2-0.7,0.3-1.1,0.3h-0.5h-0.1
	h-1.2c-0.3,0-0.7,0-1,0c-0.3,0-0.7-0.1-1-0.1c-0.3,0-0.6-0.1-0.9-0.1c-0.3-0.1-0.5-0.1-0.7-0.2c0.6-0.6,1.1-1.2,1.4-1.7
	c0.4-0.5,0.7-1,0.9-1.4c0.2-0.4,0.4-0.8,0.4-1.2c0.1-0.3,0.1-0.6,0.1-0.9c0-0.5-0.1-0.9-0.4-1.3c-0.3-0.4-0.6-0.6-1.1-0.9
	c-0.4-0.2-0.9-0.4-1.5-0.5c-0.5-0.1-1.1-0.2-1.6-0.2c-0.6,0-1.3,0-1.8,0.1c-0.6,0.1-1.1,0.2-1.6,0.4s-1,0.3-1.4,0.5
	c-0.4,0.2-0.7,0.3-1,0.5c-0.1,0.1-0.3,0.2-0.4,0.4c-0.1,0.2-0.2,0.4-0.3,0.6c-0.1,0.2-0.2,0.5-0.3,0.7c-0.1,0.2-0.1,0.5-0.2,0.6
	c0.1,0.1,0.2,0.2,0.3,0.4c0.1,0.2,0.3,0.4,0.6,0.8c0.1,0.2,0.3,0.4,0.5,0.7c0.2,0.3,0.4,0.5,0.7,0.8c0.2,0.3,0.5,0.5,0.7,0.8
	s0.5,0.5,0.8,0.7c-0.3,0.1-0.7,0.2-1.3,0.3c-0.6,0.1-1.2,0.1-1.9,0.1H243h-0.1h-0.8c-0.3,0-0.5,0-0.6-0.1c-0.2-0.1-0.3-0.1-0.4-0.3
	c-0.1-0.1-0.1-0.3-0.2-0.5c0-0.2,0-0.5,0-0.8v-8.3h-3.3v1.4c-0.5,0.1-1,0.3-1.6,0.4c-0.6,0.2-1.2,0.4-1.8,0.6
	c-0.6,0.2-1.2,0.5-1.7,0.9c-0.5,0.3-1,0.7-1.5,1.1c-0.4,0.4-0.8,0.9-1,1.4c-0.3,0.5-0.4,1.1-0.4,1.8c0,0.7,0.2,1.4,0.5,1.9
	C230.3,151.8,230.7,152.2,231.1,152.5 M263.5,149.1c0.2-0.5,0.4-1,0.7-1.4c0.3-0.4,0.6-0.7,0.9-1c0.3-0.3,0.7-0.4,1.1-0.4
	c0.4,0,0.8,0.1,1.1,0.3c0.3,0.2,0.6,0.5,0.8,0.8c0.2,0.3,0.4,0.6,0.5,1c0.1,0.3,0.2,0.7,0.2,1c0,0.4-0.1,0.8-0.2,1.1
	c-0.1,0.3-0.3,0.6-0.6,0.8c-0.2,0.2-0.5,0.3-0.9,0.4c-0.3,0.1-0.7,0.1-1.1,0.1c-0.3,0-0.6,0-0.9-0.1c-0.3-0.1-0.6-0.1-0.9-0.2
	c-0.3-0.1-0.6-0.2-0.8-0.3c-0.2-0.1-0.4-0.2-0.5-0.3C263.2,150.2,263.3,149.7,263.5,149.1 M247.9,147.3c-0.2-0.3-0.4-0.6-0.6-0.8
	c0.2-0.1,0.5-0.2,0.8-0.3c0.3-0.1,0.5-0.2,0.8-0.2c0.3-0.1,0.5-0.1,0.8-0.2c0.3,0,0.5-0.1,0.7-0.1c0.3,0,0.7,0,0.9,0.1
	c0.3,0.1,0.5,0.2,0.7,0.3c0.2,0.1,0.4,0.3,0.5,0.4c0.1,0.2,0.2,0.3,0.2,0.5c0,0.2,0,0.3-0.1,0.6c-0.1,0.2-0.2,0.5-0.4,0.7
	c-0.2,0.3-0.4,0.6-0.7,0.8c-0.3,0.3-0.6,0.6-1.1,0.9c-0.3-0.2-0.6-0.5-0.9-0.8c-0.3-0.3-0.6-0.7-0.9-1
	C248.4,147.9,248.1,147.6,247.9,147.3 M233,147.9c0.2-0.3,0.6-0.6,1-0.9c0.4-0.3,0.9-0.5,1.5-0.7c0.6-0.2,1.3-0.4,2-0.5v4.3
	c-0.3,0.2-0.7,0.4-1.2,0.5c-0.5,0.1-0.9,0.2-1.4,0.2c-0.3,0-0.5,0-0.8-0.1c-0.3-0.1-0.5-0.2-0.7-0.3c-0.2-0.1-0.4-0.3-0.5-0.6
	c-0.1-0.2-0.2-0.5-0.2-0.8C232.7,148.6,232.8,148.3,233,147.9"/>
<path class="st6" d="M237.8,139.6c0.1,0.1,0.3,0.3,0.5,0.4c0.2,0.1,0.4,0.1,0.6,0.1c0.2,0,0.4,0,0.6-0.1c0.2-0.1,0.4-0.2,0.5-0.4
	c0.2-0.1,0.3-0.3,0.4-0.5c0.1-0.2,0.1-0.4,0.1-0.6c0-0.2,0-0.4-0.1-0.6c-0.1-0.2-0.2-0.4-0.4-0.5c-0.1-0.2-0.3-0.3-0.5-0.4
	c-0.2-0.1-0.4-0.1-0.6-0.1c-0.2,0-0.4,0-0.6,0.1c-0.2,0.1-0.4,0.2-0.5,0.4c-0.1,0.1-0.3,0.3-0.4,0.5c-0.1,0.2-0.1,0.4-0.1,0.6
	c0,0.2,0,0.4,0.1,0.6C237.6,139.2,237.7,139.4,237.8,139.6"/>
<path class="st6" d="M275.8,153.2c0.3,0.4,0.7,0.7,1.3,0.9c0.5,0.2,1.1,0.3,1.8,0.3h1.4h0.1h13.2h0.1h6.3V136h-3.3v15.6h-2.9h-0.1
	h-1.1c-0.2,0-0.4-0.1-0.5-0.3c-0.1-0.2-0.3-0.5-0.4-0.9c-0.1-0.4-0.2-0.8-0.3-1.3c-0.1-0.5-0.2-1-0.2-1.5c-0.1-0.6-0.3-1.2-0.5-1.8
	c-0.3-0.5-0.6-1-1-1.4c-0.4-0.4-0.9-0.7-1.5-0.9c-0.6-0.2-1.2-0.3-2-0.3c-0.8,0-1.4,0.1-2,0.2c-0.6,0.1-1.2,0.3-1.8,0.5v2.6
	c0.3-0.1,0.5-0.2,0.8-0.3c0.3-0.1,0.6-0.2,0.9-0.2c0.3-0.1,0.6-0.1,0.8-0.1c0.3,0,0.5,0,0.7,0c0.5,0,1,0.1,1.3,0.4
	c0.3,0.2,0.6,0.5,0.8,0.9c0.2,0.4,0.3,0.8,0.4,1.3c0.1,0.5,0.2,1,0.3,1.4c0.1,0.3,0.1,0.6,0.2,0.9c0.1,0.3,0.2,0.6,0.3,0.8h-8.4
	h-0.1h-0.6c-0.3,0-0.5,0-0.7-0.1c-0.2-0.1-0.3-0.2-0.5-0.3c-0.1-0.2-0.2-0.4-0.3-0.7c-0.1-0.3-0.1-0.6-0.1-1.1V136h-3.3v14.1
	c0,0.6,0.1,1.2,0.2,1.7C275.2,152.4,275.5,152.8,275.8,153.2"/>
<path class="st6" d="M285.7,159.6c0.2,0.1,0.4,0.1,0.6,0.1c0.2,0,0.4,0,0.6-0.1c0.2-0.1,0.4-0.2,0.5-0.4c0.1-0.1,0.3-0.3,0.4-0.5
	c0.1-0.2,0.1-0.4,0.1-0.6c0-0.2,0-0.4-0.1-0.6c-0.1-0.2-0.2-0.4-0.4-0.5c-0.2-0.1-0.3-0.3-0.5-0.4c-0.2-0.1-0.4-0.1-0.6-0.1
	c-0.2,0-0.4,0-0.6,0.1c-0.2,0.1-0.4,0.2-0.5,0.4c-0.1,0.2-0.3,0.3-0.4,0.5c-0.1,0.2-0.1,0.4-0.1,0.6c0,0.2,0,0.4,0.1,0.6
	c0.1,0.2,0.2,0.4,0.4,0.5C285.3,159.4,285.5,159.5,285.7,159.6"/>
<rect x="303.2" y="136" class="st6" width="3.3" height="18.4"/>
<path class="st6" d="M223.5,202.9c0.5-0.6,1.1-1.2,1.6-1.8c0.2-0.3,0.4-0.6,0.6-0.9c0.2-0.3,0.4-0.6,0.5-1c0.1-0.3,0.3-0.7,0.4-1
	c0.1-0.3,0.1-0.7,0.1-1.1c0-0.7-0.1-1.2-0.3-1.7c-0.2-0.5-0.5-0.9-0.8-1.2c-0.4-0.3-0.8-0.5-1.3-0.7c-0.5-0.2-1.1-0.2-1.7-0.2
	c-0.7,0-1.3,0.1-2,0.2c-0.6,0.2-1.3,0.4-1.9,0.7l0.2,2.1c0.5-0.3,0.9-0.5,1.4-0.7c0.5-0.2,1-0.3,1.6-0.3c0.3,0,0.5,0,0.8,0.1
	c0.3,0.1,0.5,0.2,0.7,0.3c0.2,0.1,0.3,0.3,0.5,0.5c0.1,0.2,0.2,0.5,0.2,0.8c0,0.4-0.1,0.8-0.3,1.2c-0.2,0.4-0.5,0.9-0.8,1.3
	c-0.3,0.5-0.7,0.9-1.1,1.3c-0.4,0.4-0.8,0.9-1.2,1.3c-0.4,0.4-0.8,0.8-1.2,1.1c-0.4,0.3-0.7,0.6-1,0.9v2.2h8.6v-2h-5.3
	C222.4,204,223,203.5,223.5,202.9"/>
<path class="st6" d="M237.3,197.1c-0.1-0.5-0.3-1-0.5-1.4c-0.2-0.4-0.5-0.8-0.8-1.2c-0.3-0.3-0.7-0.6-1.2-0.8
	c-0.5-0.2-1-0.3-1.6-0.3c-0.6,0-1.1,0.1-1.6,0.3c-0.5,0.2-0.8,0.5-1.2,0.8c-0.3,0.3-0.6,0.7-0.8,1.2c-0.2,0.4-0.4,0.9-0.5,1.4
	c-0.1,0.5-0.2,1-0.3,1.5c-0.1,0.5-0.1,1-0.1,1.5c0,0.5,0,1,0.1,1.5c0,0.5,0.1,1,0.3,1.5c0.1,0.5,0.3,1,0.5,1.4
	c0.2,0.4,0.5,0.8,0.8,1.1c0.3,0.3,0.7,0.6,1.2,0.8c0.5,0.2,1,0.3,1.6,0.3c0.6,0,1.2-0.1,1.6-0.3c0.5-0.2,0.9-0.4,1.2-0.8
	c0.3-0.3,0.6-0.7,0.8-1.1s0.4-0.9,0.5-1.4c0.1-0.5,0.2-1,0.3-1.5c0.1-0.5,0.1-1,0.1-1.5c0-0.5,0-1-0.1-1.6
	C237.5,198.1,237.4,197.6,237.3,197.1 M235.1,201.6c0,0.3,0,0.5-0.1,0.8c0,0.3-0.1,0.5-0.2,0.8c-0.1,0.2-0.1,0.4-0.2,0.7
	c-0.1,0.2-0.2,0.4-0.3,0.6c-0.1,0.2-0.3,0.3-0.5,0.4c-0.2,0.1-0.4,0.1-0.7,0.1c-0.3,0-0.6-0.1-0.8-0.3c-0.2-0.2-0.4-0.4-0.5-0.7
	c-0.1-0.3-0.2-0.6-0.3-0.9c-0.1-0.3-0.1-0.7-0.2-1c0-0.4-0.1-0.7-0.1-1c0-0.3,0-0.6,0-0.8s0-0.5,0-0.8c0-0.3,0-0.7,0.1-1
	c0-0.4,0.1-0.7,0.2-1.1c0.1-0.4,0.2-0.7,0.3-1c0.1-0.3,0.3-0.5,0.5-0.7c0.2-0.2,0.5-0.3,0.8-0.3c0.3,0,0.6,0.1,0.8,0.2
	c0.2,0.1,0.4,0.3,0.5,0.6c0.1,0.2,0.3,0.5,0.3,0.8c0.1,0.3,0.1,0.6,0.2,0.9c0,0.3,0.1,0.6,0.1,0.9c0,0.3,0,0.6,0,0.9V201.6z"/>
<polygon class="st6" points="239.8,196.7 241,198.4 243.2,196.7 243.2,206.6 245.8,206.6 245.8,193.7 243.5,193.7 "/>
<polygon class="st6" points="250,196.7 251.3,198.4 253.5,196.7 253.5,206.6 256.1,206.6 256.1,193.7 253.8,193.7 "/>
<rect x="259.5" y="200.6" class="st6" width="4.9" height="2"/>
<polygon class="st6" points="266.5,196.7 267.7,198.4 269.9,196.7 269.9,206.6 272.5,206.6 272.5,193.7 270.2,193.7 "/>
<path class="st6" d="M283.6,193.7h-3.2l-4.8,8.1v2.1h5.6v2.7h2.5v-2.7h1.6V202h-1.6V193.7z M281.1,202h-3.2l3.2-5.6h0V202z"/>
<path class="st6" d="M294.1,200.9c-0.2-0.3-0.5-0.5-0.8-0.7c-0.3-0.2-0.7-0.3-1.1-0.4v0c0.4-0.1,0.7-0.3,1-0.5
	c0.3-0.2,0.5-0.4,0.8-0.7c0.2-0.3,0.4-0.5,0.5-0.9c0.1-0.3,0.2-0.7,0.2-1.1c0-0.6-0.1-1.1-0.4-1.6c-0.2-0.4-0.6-0.8-1-1
	c-0.4-0.3-0.8-0.4-1.4-0.6c-0.5-0.1-1-0.2-1.6-0.2c-0.6,0-1.2,0-1.8,0.2c-0.6,0.1-1.2,0.3-1.8,0.5l0.2,2.1c0.5-0.2,0.9-0.4,1.4-0.5
	c0.5-0.1,1-0.2,1.5-0.2c0.3,0,0.6,0,0.8,0.1c0.3,0.1,0.5,0.1,0.7,0.3c0.2,0.1,0.4,0.3,0.5,0.5c0.1,0.2,0.2,0.5,0.2,0.8
	c0,0.3-0.1,0.5-0.2,0.7c-0.1,0.2-0.2,0.3-0.4,0.5c-0.2,0.1-0.4,0.2-0.6,0.3c-0.2,0.1-0.5,0.1-0.7,0.2c-0.3,0-0.5,0.1-0.8,0.1
	c-0.3,0-0.5,0-0.7,0c-0.1,0-0.3,0-0.4,0c-0.1,0-0.2,0-0.3,0v2c0.1,0,0.3,0,0.5,0c0.2,0,0.3,0,0.5,0c0.4,0,0.7,0,1.1,0.1
	c0.4,0,0.7,0.1,1,0.3c0.3,0.1,0.5,0.3,0.7,0.6c0.2,0.3,0.3,0.6,0.3,1.1c0,0.3-0.1,0.6-0.3,0.8c-0.2,0.2-0.4,0.4-0.7,0.6
	c-0.3,0.1-0.6,0.3-0.9,0.3c-0.3,0.1-0.6,0.1-0.9,0.1c-0.5,0-1,0-1.5-0.1c-0.5-0.1-1-0.2-1.4-0.4l-0.2,2.2c0.6,0.2,1.1,0.3,1.7,0.3
	c0.6,0.1,1.1,0.1,1.7,0.1c0.9,0,1.7-0.2,2.5-0.5c0.1,0,0.3-0.1,0.4-0.1c0.1-0.1,0.2-0.1,0.4-0.2c0.3-0.2,0.5-0.3,0.7-0.6
	c0.2-0.2,0.4-0.5,0.5-0.7c0.1-0.3,0.2-0.6,0.3-0.9s0.1-0.6,0.1-0.9c0-0.4,0-0.8-0.2-1.1C294.4,201.5,294.3,201.2,294.1,200.9"/>
<path class="st6" d="M301.5,202.9c0.5-0.6,1.1-1.2,1.6-1.8c0.2-0.3,0.4-0.6,0.6-0.9c0.2-0.3,0.4-0.6,0.5-1c0.1-0.3,0.3-0.7,0.4-1
	c0.1-0.3,0.1-0.7,0.1-1.1c0-0.7-0.1-1.2-0.3-1.7c-0.2-0.5-0.5-0.9-0.8-1.2c-0.4-0.3-0.8-0.5-1.3-0.7c-0.5-0.2-1.1-0.2-1.7-0.2
	c-0.7,0-1.3,0.1-2,0.2c-0.6,0.2-1.3,0.4-1.9,0.7l0.2,2.1c0.5-0.3,0.9-0.5,1.4-0.7c0.5-0.2,1-0.3,1.6-0.3c0.3,0,0.5,0,0.8,0.1
	c0.3,0.1,0.5,0.2,0.7,0.3c0.2,0.1,0.3,0.3,0.5,0.5c0.1,0.2,0.2,0.5,0.2,0.8c0,0.4-0.1,0.8-0.3,1.2c-0.2,0.4-0.5,0.9-0.8,1.3
	c-0.3,0.5-0.7,0.9-1.1,1.3c-0.4,0.4-0.8,0.9-1.2,1.3c-0.4,0.4-0.8,0.8-1.2,1.1c-0.4,0.3-0.7,0.6-1,0.9v2.2h8.6v-2h-5.3
	C300.4,204,301,203.5,301.5,202.9"/>
</svg>
